<svg width="19" height="19" viewBox="0 0 19 19" fill="none" xmlns="http://www.w3.org/2000/svg">
<path d="M5.7 19C5.1775 19 4.73021 18.814 4.35813 18.4419C3.98604 18.0698 3.8 17.6225 3.8 17.1C3.8 16.5775 3.98604 16.1302 4.35813 15.7581C4.73021 15.386 5.1775 15.2 5.7 15.2C6.2225 15.2 6.66979 15.386 7.04187 15.7581C7.41396 16.1302 7.6 16.5775 7.6 17.1C7.6 17.6225 7.41396 18.0698 7.04187 18.4419C6.66979 18.814 6.2225 19 5.7 19ZM15.2 19C14.6775 19 14.2302 18.814 13.8581 18.4419C13.486 18.0698 13.3 17.6225 13.3 17.1C13.3 16.5775 13.486 16.1302 13.8581 15.7581C14.2302 15.386 14.6775 15.2 15.2 15.2C15.7225 15.2 16.1698 15.386 16.5419 15.7581C16.914 16.1302 17.1 16.5775 17.1 17.1C17.1 17.6225 16.914 18.0698 16.5419 18.4419C16.1698 18.814 15.7225 19 15.2 19ZM4.8925 3.8L7.1725 8.55H13.8225L16.435 3.8H4.8925ZM3.99 1.9H18.0025C18.3667 1.9 18.6437 2.06229 18.8338 2.38688C19.0238 2.71146 19.0317 3.04 18.8575 3.3725L15.485 9.4525C15.3108 9.76917 15.0773 10.0146 14.7844 10.1888C14.4915 10.3629 14.1708 10.45 13.8225 10.45H6.745L5.7 12.35H17.1V14.25H5.7C4.9875 14.25 4.44917 13.9373 4.085 13.3119C3.72083 12.6865 3.705 12.065 4.0375 11.4475L5.32 9.12L1.9 1.9H0V0H3.0875L3.99 1.9ZM7.1725 8.55H13.8225H7.1725Z" fill="#00285D"/>
</svg>
